<svg xmlns="http://www.w3.org/2000/svg" version="1.1" xmlns:xlink="http://www.w3.org/1999/xlink" xmlns:svgjs="http://svgjs.com/svgjs" width="100%" height="100%" viewBox="0 0 1000 600"><rect width="1000" height="600" x="0" y="0" fill="#072c50"/><g><rect width="333.3333333333333" height="333.3333333333333" rx="13.333333333333334" ry="13.333333333333334" y="77.77777014838344" fill="#b88746" transform="matrix(2.2499999313354513,0,0,2.2499999313354517,0,-249.99999084472722)" x="55.55555725097656"/><path d="M158.96711793390983 319.4444422263391Q130.08100763719932 319.4444422263391 115.01752154840523 305.9392478019031Q99.95403545961113 292.43405337746697 99.95403545961113 266.4625256381669L99.95403545961113 266.4625256381669L99.95403545961113 222.22435672222562Q99.95403545961113 196.65683052553683 114.61352000579389 183.03620708892606Q129.24414729893297 169.444440905359 156.8893957147658 169.444440905359L156.8893957147658 169.444440905359Q174.95403612010125 169.444440905359 187.85322823062032 175.158177008005Q200.72356308809572 180.87191311065106 209.03445196467177 192.9053876298601L209.03445196467177 192.9053876298601L198.44384009764607 200.61027419251914Q191.171812330642 190.8276654107161 181.30263178970796 186.15279041764208Q171.4334512487739 181.47791542456804 157.4953980286828 181.47791542456804L157.4953980286828 181.47791542456804Q136.7181758372427 181.47791542456804 125.81013418673663 191.8665265202881Q114.90209253623055 202.25513761600817 114.90209253623055 222.22435672222562L114.90209253623055 222.22435672222562L114.90209253623055 266.4625256381669Q114.90209253623055 286.63374551568995 126.04099221108596 297.02235661141003Q137.15103463289768 307.4109677071301 158.76511716260416 307.4109677071301L158.76511716260416 307.4109677071301Q173.0783146722629 307.4109677071301 183.0629242253716 302.6206637018814Q193.04753377848036 297.83035969663274 200.3195615454844 287.672606625262L200.3195615454844 287.672606625262L210.91017341251012 295.75263747748875Q201.5604234263621 308.2189707923527 189.29609088280367 313.8461351358678Q177.03175833924524 319.4444422263391 158.96711793390983 319.4444422263391L158.96711793390983 319.4444422263391ZM284.2364533964676 319.4444422263391Q275.31956220597453 319.4444422263391 269.8078268746341 313.41327634021275Q264.29609154329376 307.4109677071301 260.14064710500577 293.2709137157334L260.14064710500577 293.2709137157334L223.9825090412912 171.72416389580866L238.95942337095428 171.72416389580866L274.88670341031946 293.06891294442767Q276.76242485815783 299.706081144471 278.9555760894765 302.6206637018814Q281.11987006775155 305.53524625929174 284.2364533964676 305.53524625929174L284.2364533964676 305.53524625929174Q287.1510359538779 305.53524625929174 289.2287581730219 302.7360927140561Q291.3064803921659 299.90808191577673 293.3842026113099 293.06891294442767L293.3842026113099 293.06891294442767L329.3403399037188 171.72416389580866L344.4903977516439 171.72416389580866L308.36111694097303 293.2709137157334Q304.20567250268493 307.18010968278077 298.57850815917 313.3267045810818Q292.9802010686986 319.4444422263391 284.2364533964676 319.4444422263391L284.2364533964676 319.4444422263391Z " fill="#072c50" transform="matrix(2.2499999313354513,0,0,2.2499999313354517,0,-249.99999084472722)"/><path d="MNaN 244.44444105360233 " fill="#b88746" transform="matrix(2.2499999313354513,0,0,2.2499999313354517,0,-249.99999084472722)"/></g></svg>